<?xml version="1.0" standalone="no"?>
<!DOCTYPE svg PUBLIC "-//W3C//DTD SVG 1.1//EN" "http://www.w3.org/Graphics/SVG/1.1/DTD/svg11.dtd">
<svg version="1.1" xmlns="http://www.w3.org/2000/svg" xmlns:xlink="http://www.w3.org/1999/xlink" x="0px" y="0px" viewBox="0 0 1000 1000" enable-background="new 0 0 1000 1000" xml:space="preserve">
<path d="M497.69083 562.529258L3.577293 281.264629 497.69083 0l522.731877 281.264629zM93.009607 281.264629l404.681223 229.841048 427.486463-229.841048-426.59214-230.28821z" fill="#0F3567" p-id="6920"></path><path d="M497.69083 793.264629L3.577293 512l148.01048-84.066376 21.910917 38.903057-79.59476 45.163319 404.681223 229.841048 427.486463-229.841048-90.773799-48.740611 21.463755-39.350219 163.661135 88.09083-522.731877 281.264629z" fill="#0F3567" p-id="6921"></path><path d="M497.69083 1024L3.577293 742.735371l131.465502-74.675982 22.358078 38.903056-63.496943 35.772926 404.681223 230.28821 427.486463-230.28821-67.968559-36.667249 21.016594-39.350218 141.303056 76.017467-522.731877 281.264629z" fill="#0F3567" p-id="6922"></path>
</svg>